<svg xmlns="http://www.w3.org/2000/svg" xmlns:xlink="http://www.w3.org/1999/xlink" width="80" zoomAndPan="magnify" viewBox="0 0 375.75 375.749989" height="80" preserveAspectRatio="xMidYMid meet" version="1.0"><defs><clipPath id="fc822dd3dc"><path d="M 108.203125 108.421875 L 267.382812 108.421875 L 267.382812 267.605469 L 108.203125 267.605469 Z M 108.203125 108.421875 " clip-rule="nonzero"/></clipPath><clipPath id="65eba9a75f"><path d="M 75 75 L 301 75 L 301 301 L 75 301 Z M 75 75 " clip-rule="nonzero"/></clipPath><clipPath id="ed55105b9c"><path d="M 75.238281 188.011719 L 187.792969 75.457031 L 300.351562 188.011719 L 187.792969 300.570312 Z M 75.238281 188.011719 " clip-rule="nonzero"/></clipPath><clipPath id="2ef736493d"><path d="M 75.238281 188.011719 L 187.792969 75.457031 L 300.351562 188.011719 L 187.792969 300.570312 Z M 75.238281 188.011719 " clip-rule="nonzero"/></clipPath><clipPath id="86e97ab82d"><path d="M 112 114 L 263 114 L 263 265 L 112 265 Z M 112 114 " clip-rule="nonzero"/></clipPath><clipPath id="d21cbfbecc"><path d="M 152.691406 94.480469 L 282.320312 155.089844 L 221.710938 284.71875 L 92.082031 224.109375 Z M 152.691406 94.480469 " clip-rule="nonzero"/></clipPath><clipPath id="3e3e4ceba1"><path d="M 152.691406 94.480469 L 282.320312 155.089844 L 221.710938 284.71875 L 92.082031 224.109375 Z M 152.691406 94.480469 " clip-rule="nonzero"/></clipPath></defs><g clip-path="url(#fc822dd3dc)"><path fill="#f6f2ef" d="M 108.203125 108.421875 L 267.382812 108.421875 L 267.382812 267.605469 L 108.203125 267.605469 Z M 108.203125 108.421875 " fill-opacity="1" fill-rule="nonzero"/></g><g clip-path="url(#65eba9a75f)"><g clip-path="url(#ed55105b9c)"><g clip-path="url(#2ef736493d)"><path fill="#f6f2ef" d="M 75.238281 188.011719 L 187.792969 75.457031 L 300.351562 188.011719 L 187.792969 300.570312 Z M 75.238281 188.011719 " fill-opacity="1" fill-rule="nonzero"/></g></g></g><g clip-path="url(#86e97ab82d)"><g clip-path="url(#d21cbfbecc)"><g clip-path="url(#3e3e4ceba1)"><path fill="#5b6946" d="M 240.039062 239.804688 C 236.722656 231.835938 230.613281 218.789062 221.210938 204.527344 C 238.070312 201.78125 251.804688 197.429688 259.914062 194.460938 C 263.007812 193.328125 263.09375 189.003906 260.050781 187.75 C 252.070312 184.457031 238.527344 179.546875 221.792969 176.117188 C 231.773438 162.253906 238.40625 149.460938 242.042969 141.632812 C 243.429688 138.648438 240.4375 135.527344 237.394531 136.789062 C 229.421875 140.105469 216.375 146.210938 202.113281 155.617188 C 199.367188 138.757812 195.015625 125.019531 192.050781 116.917969 C 190.917969 113.820312 186.597656 113.734375 185.339844 116.777344 C 182.046875 124.757812 177.140625 138.300781 173.707031 155.039062 C 159.84375 145.058594 147.054688 138.421875 139.222656 134.785156 C 136.238281 133.398438 133.117188 136.390625 134.378906 139.4375 C 137.695312 147.40625 143.800781 160.457031 153.207031 174.71875 C 136.347656 177.460938 122.613281 181.8125 114.503906 184.78125 C 111.410156 185.914062 111.324219 190.238281 114.367188 191.492188 C 122.347656 194.785156 135.890625 199.695312 152.625 203.128906 C 142.644531 216.988281 136.011719 229.78125 132.375 237.609375 C 130.988281 240.59375 133.980469 243.714844 137.023438 242.453125 C 144.996094 239.136719 158.042969 233.03125 172.304688 223.625 C 175.046875 240.488281 179.402344 254.222656 182.363281 262.328125 C 183.5 265.421875 187.820312 265.507812 189.078125 262.464844 C 192.371094 254.484375 197.277344 240.941406 200.710938 224.207031 C 214.570312 234.1875 227.363281 240.820312 235.191406 244.457031 C 238.183594 245.847656 241.304688 242.847656 240.039062 239.804688 Z M 181.019531 202.863281 C 173.703125 199.445312 170.546875 190.746094 173.96875 183.429688 C 177.386719 176.117188 186.089844 172.960938 193.402344 176.378906 C 200.714844 179.800781 203.871094 188.5 200.453125 195.8125 C 197.03125 203.128906 188.332031 206.285156 181.019531 202.863281 Z M 181.019531 202.863281 " fill-opacity="1" fill-rule="nonzero"/></g></g></g></svg>