<svg xmlns="http://www.w3.org/2000/svg" xmlns:xlink="http://www.w3.org/1999/xlink" width="261" zoomAndPan="magnify" viewBox="0 0 195.75 195.749994" height="261" preserveAspectRatio="xMidYMid meet" version="1.0"><defs><clipPath id="1f261b0541"><path d="M 82.050781 81.980469 L 113.972656 81.980469 L 113.972656 113.902344 L 82.050781 113.902344 Z M 82.050781 81.980469 " clip-rule="nonzero"/></clipPath><clipPath id="0f952c25cf"><path d="M 75 75 L 121 75 L 121 121 L 75 121 Z M 75 75 " clip-rule="nonzero"/></clipPath><clipPath id="7409fad349"><path d="M 75.441406 97.941406 L 98.011719 75.371094 L 120.582031 97.941406 L 98.011719 120.511719 Z M 75.441406 97.941406 " clip-rule="nonzero"/></clipPath><clipPath id="c5a980f200"><path d="M 75.441406 97.941406 L 98.011719 75.371094 L 120.582031 97.941406 L 98.011719 120.511719 Z M 75.441406 97.941406 " clip-rule="nonzero"/></clipPath><clipPath id="4143d2c443"><path d="M 82 83 L 113 83 L 113 114 L 82 114 Z M 82 83 " clip-rule="nonzero"/></clipPath><clipPath id="787e1824c1"><path d="M 90.972656 79.183594 L 116.96875 91.339844 L 104.8125 117.335938 L 78.820312 105.179688 Z M 90.972656 79.183594 " clip-rule="nonzero"/></clipPath><clipPath id="ec04c4e621"><path d="M 90.972656 79.183594 L 116.96875 91.339844 L 104.8125 117.335938 L 78.820312 105.179688 Z M 90.972656 79.183594 " clip-rule="nonzero"/></clipPath></defs><g clip-path="url(#1f261b0541)"><path fill="#f6f2ef" d="M 82.050781 81.980469 L 113.972656 81.980469 L 113.972656 113.902344 L 82.050781 113.902344 Z M 82.050781 81.980469 " fill-opacity="1" fill-rule="nonzero"/></g><g clip-path="url(#0f952c25cf)"><g clip-path="url(#7409fad349)"><g clip-path="url(#c5a980f200)"><path fill="#f6f2ef" d="M 75.441406 97.941406 L 98.011719 75.371094 L 120.582031 97.941406 L 98.011719 120.511719 Z M 75.441406 97.941406 " fill-opacity="1" fill-rule="nonzero"/></g></g></g><g clip-path="url(#4143d2c443)"><g clip-path="url(#787e1824c1)"><g clip-path="url(#ec04c4e621)"><path fill="#5b6946" d="M 108.488281 108.328125 C 107.824219 106.730469 106.597656 104.113281 104.714844 101.253906 C 108.09375 100.703125 110.847656 99.828125 112.472656 99.234375 C 113.09375 99.007812 113.113281 98.140625 112.503906 97.890625 C 110.902344 97.230469 108.1875 96.246094 104.828125 95.554688 C 106.832031 92.777344 108.160156 90.210938 108.890625 88.640625 C 109.167969 88.042969 108.570312 87.417969 107.957031 87.667969 C 106.359375 88.335938 103.742188 89.558594 100.882812 91.445312 C 100.332031 88.0625 99.460938 85.308594 98.867188 83.683594 C 98.640625 83.0625 97.773438 83.046875 97.519531 83.65625 C 96.859375 85.257812 95.875 87.972656 95.1875 91.328125 C 92.40625 89.328125 89.84375 87.996094 88.273438 87.265625 C 87.671875 86.988281 87.046875 87.589844 87.300781 88.199219 C 87.964844 89.796875 89.191406 92.414062 91.074219 95.273438 C 87.695312 95.824219 84.941406 96.699219 83.316406 97.292969 C 82.695312 97.519531 82.675781 98.386719 83.289062 98.640625 C 84.886719 99.300781 87.605469 100.285156 90.960938 100.972656 C 88.957031 103.753906 87.628906 106.316406 86.898438 107.886719 C 86.621094 108.484375 87.21875 109.113281 87.832031 108.859375 C 89.429688 108.195312 92.046875 106.96875 94.90625 105.082031 C 95.457031 108.464844 96.328125 111.21875 96.921875 112.84375 C 97.152344 113.464844 98.019531 113.480469 98.269531 112.871094 C 98.929688 111.269531 99.914062 108.554688 100.601562 105.199219 C 103.382812 107.199219 105.949219 108.53125 107.515625 109.261719 C 108.117188 109.539062 108.742188 108.9375 108.488281 108.328125 Z M 96.652344 100.917969 C 95.1875 100.234375 94.554688 98.488281 95.238281 97.023438 C 95.925781 95.554688 97.671875 94.921875 99.136719 95.609375 C 100.605469 96.292969 101.238281 98.039062 100.550781 99.507812 C 99.863281 100.972656 98.121094 101.605469 96.652344 100.917969 Z M 96.652344 100.917969 " fill-opacity="1" fill-rule="nonzero"/></g></g></g></svg>